<svg width="32" height="32" xmlns="http://www.w3.org/2000/svg">
    <g fill="none" fill-rule="evenodd">
        <path d="M0 0h32v32H0z"/>
        <path fill="#5E40E0" d="m12.137 29.443.02.018.013-.014z"/>
        <path d="M25.691 8.34a.5.5 0 0 1 .492.41l.008.09v5.639c.666.03 1.313.324 1.776.852l.113.137 2.721 3.575a.5.5 0 0 1 .096.222l.007.08v5.235a7.165 7.165 0 0 1-6.923 7.16l-.242.005h-.954a6.21 6.21 0 0 1-6.19-5.71h-1.8a.5.5 0 0 1-.493-.41l-.008-.09v-.975a.5.5 0 0 1 .992-.09l.008.09v.474h3.493V10.947a.5.5 0 0 1 .41-.492l.09-.008a.5.5 0 0 1 .492.41l.008.09v14.588a.5.5 0 0 1-.41.491l-.09.009h-1.688a5.211 5.211 0 0 0 4.966 4.705l.22.005h.954a6.165 6.165 0 0 0 6.16-5.939l.005-.226v-5.066l-2.62-3.44a1.516 1.516 0 0 0-1.898-.43l-.127.073a1.333 1.333 0 0 0-.47 1.722l.08.135 1.565 2.361h1.453a.5.5 0 0 1 .492.41l.008.09a.5.5 0 0 1-.41.492l-.09.008H26.19l.001 4.6a.5.5 0 0 1-.41.491l-.09.009h-4.136a.5.5 0 0 1-.09-.992l.09-.008h3.636v-4.98a.5.5 0 0 1 .022-.148l-1.197-1.81a2.332 2.332 0 0 1 .703-3.222c.152-.097.31-.176.471-.237V9.339h-9.896v.634a.5.5 0 0 1-.41.492l-.09.008a.5.5 0 0 1-.492-.41l-.008-.09V8.839a.5.5 0 0 1 .41-.492l.09-.008h10.897z" fill="#5E47DC" fill-rule="nonzero"/>
        <path d="M20.941 12.99v-1.307a.74.74 0 0 1 .738-.736h1.306a.74.74 0 0 1 .737.736v1.307a.74.74 0 0 1-.737.736H21.68a.739.739 0 0 1-.738-.736" fill-opacity=".6" fill="#5E47DC"/>
        <path d="M14.794 10.613c-.617 0-1.117.502-1.117 1.116a1.118 1.118 0 0 0 2.234 0c0-.614-.5-1.116-1.117-1.116m0 3.398a2.283 2.283 0 0 1-2.28-2.28 2.284 2.284 0 0 1 2.28-2.28 2.283 2.283 0 0 1 2.28 2.28 2.282 2.282 0 0 1-2.28 2.28" fill="#5E47DC"/>
        <path d="M14.428 14.715c-.636 0-1.154.517-1.154 1.153s.518 1.153 1.154 1.153c.636 0 1.153-.517 1.153-1.153s-.517-1.153-1.153-1.153m0 3.471a2.32 2.32 0 0 1-2.318-2.316 2.32 2.32 0 0 1 2.318-2.317 2.32 2.32 0 0 1 2.317 2.317 2.32 2.32 0 0 1-2.317 2.316" fill="#5E47DC"/>
        <path d="M14.428 18.357a1.699 1.699 0 1 1 0 3.397 1.699 1.699 0 0 1 0-3.397" stroke="#5E47DC"/>
        <path d="M14.794 22.317a.744.744 0 0 0-.742.743c0 .408.333.742.742.742a.744.744 0 0 0 .743-.742.744.744 0 0 0-.743-.743m0 2.648a1.908 1.908 0 0 1-1.906-1.905c0-1.051.855-1.906 1.906-1.906s1.906.855 1.906 1.906c0 1.05-.855 1.905-1.906 1.905" fill="#5E47DC"/>
        <path d="M17.426 8.71 10.106.784A1 1 0 0 0 8.647.772L.942 8.866a1 1 0 0 0-.275.69v8.79a1 1 0 0 0 1 1h11.221l1.164-1.16L12.513 16l1.781-2.274-1.406-2.4 1.906-1.653V8.71h2.632z" fill-opacity=".6" fill="#5E47DC"/>
    </g>
</svg>
